<svg width="16" height="16" viewBox="0 0 16 16" fill="none" xmlns="http://www.w3.org/2000/svg">
<path d="M7.99993 0.285767C12.2604 0.285767 15.7142 3.73957 15.7142 8.00005C15.7142 12.2605 12.2604 15.7143 7.99993 15.7143C3.73945 15.7143 0.285645 12.2605 0.285645 8.00005C0.285645 3.73957 3.73945 0.285767 7.99993 0.285767ZM7.99993 1.25005C4.27201 1.25005 1.24993 4.27213 1.24993 8.00005C1.24993 11.728 4.27201 14.7501 7.99993 14.7501C11.7279 14.7501 14.7499 11.728 14.7499 8.00005C14.7499 4.27213 11.7279 1.25005 7.99993 1.25005ZM10.8733 5.73055C11.0616 5.54227 11.3669 5.54227 11.5551 5.73055C11.7434 5.91884 11.7434 6.22412 11.5551 6.41241L7.05514 10.9124C6.86685 11.1007 6.56158 11.1007 6.37329 10.9124L4.12329 8.66241C3.935 8.47412 3.935 8.16884 4.12329 7.98055C4.31158 7.79227 4.61685 7.79227 4.80514 7.98055L6.71422 9.88963L10.8733 5.73055Z" fill="#E5D652"/>
</svg>
