<svg width="16" height="16" viewBox="0 0 16 16" fill="none" xmlns="http://www.w3.org/2000/svg">
<path d="M5.66659 10.3334L10.3333 5.66671M10.3333 10.3334L5.66659 5.66671M9.93325 1.33337H6.06659C5.61325 1.33337 4.97325 1.60004 4.65325 1.92004L1.91992 4.65337C1.59992 4.97337 1.33325 5.61337 1.33325 6.06671V9.93337C1.33325 10.3867 1.59992 11.0267 1.91992 11.3467L4.65325 14.08C4.97325 14.4 5.61325 14.6667 6.06659 14.6667H9.93325C10.3866 14.6667 11.0266 14.4 11.3466 14.08L14.0799 11.3467C14.3999 11.0267 14.6666 10.3867 14.6666 9.93337V6.06671C14.6666 5.61337 14.3999 4.97337 14.0799 4.65337L11.3466 1.92004C11.0266 1.60004 10.3866 1.33337 9.93325 1.33337Z" stroke="#CA4444" stroke-linecap="round" stroke-linejoin="round"/>
</svg>
