<svg width="17" height="16" viewBox="0 0 17 16" fill="none" xmlns="http://www.w3.org/2000/svg">
<path d="M8.29632 0.285767C12.5568 0.285767 16.0106 3.73957 16.0106 8.00005C16.0106 12.2605 12.5568 15.7143 8.29632 15.7143C4.03583 15.7143 0.582031 12.2605 0.582031 8.00005C0.582031 3.73957 4.03583 0.285767 8.29632 0.285767ZM8.29632 1.25005C4.56839 1.25005 1.54632 4.27213 1.54632 8.00005C1.54632 11.728 4.56839 14.7501 8.29632 14.7501C12.0242 14.7501 15.0463 11.728 15.0463 8.00005C15.0463 4.27213 12.0242 1.25005 8.29632 1.25005ZM11.1697 5.73055C11.358 5.54227 11.6632 5.54227 11.8515 5.73055C12.0398 5.91884 12.0398 6.22412 11.8515 6.41241L7.35153 10.9124C7.16324 11.1007 6.85796 11.1007 6.66968 10.9124L4.41968 8.66241C4.23139 8.47412 4.23139 8.16884 4.41968 7.98055C4.60796 7.79227 4.91324 7.79227 5.10153 7.98055L7.0106 9.88963L11.1697 5.73055Z" fill="#52E573"/>
</svg>
