<svg width="17" height="17" viewBox="0 0 17 17" fill="none" xmlns="http://www.w3.org/2000/svg">
<path d="M9.79573 2.08313L11.1156 4.74466C11.2956 5.11515 11.7755 5.47053 12.1805 5.53858L14.5727 5.93932C16.1025 6.1964 16.4625 7.31544 15.3601 8.41937L13.5003 10.2945C13.1854 10.6121 13.0129 11.2246 13.1104 11.6631L13.6428 13.9844C14.0628 15.8217 13.0954 16.5325 11.483 15.5722L9.24079 14.2339C8.83583 13.9919 8.16841 13.9919 7.75595 14.2339L5.5137 15.5722C3.90888 16.5325 2.93399 15.8142 3.35394 13.9844L3.88638 11.6631C3.98387 11.2246 3.81139 10.6121 3.49642 10.2945L1.63663 8.41937C0.54175 7.31544 0.894211 6.1964 2.42404 5.93932L4.81628 5.53858C5.21373 5.47053 5.69368 5.11515 5.87366 4.74466L7.19352 2.08313C7.91344 0.638955 9.08331 0.638955 9.79573 2.08313Z" stroke="#818C99" stroke-width="0.75" stroke-linecap="round" stroke-linejoin="round"/>
</svg>
