<svg width="17" height="17" viewBox="0 0 17 17" fill="none" xmlns="http://www.w3.org/2000/svg">
<path d="M14.875 4.23579C12.5162 4.00204 10.1433 3.88163 7.7775 3.88163C6.375 3.88163 4.9725 3.95246 3.57 4.09413L2.125 4.23579M6.02083 3.52038L6.17667 2.59246C6.29 1.91954 6.375 1.41663 7.57208 1.41663H9.42792C10.625 1.41663 10.7171 1.94788 10.8233 2.59954L10.9792 3.52038M13.3521 6.47413L12.8917 13.607C12.8138 14.7191 12.75 15.5833 10.7737 15.5833H6.22625C4.25 15.5833 4.18625 14.7191 4.10833 13.607L3.64792 6.47413M7.31708 11.6875H9.67583M6.72917 8.85413H10.2708" stroke="#FF0000" stroke-width="1.5" stroke-linecap="round" stroke-linejoin="round"/>
</svg>
